<svg xmlns="http://www.w3.org/2000/svg" width="130" height="41" viewBox="0 0 130 41"><title>MS-SymbolLockup</title><rect width="130" height="41" fill="#fff"/><path d="M129,1V40H1V1H129m1-1H0V41H130V0Z" fill="#8c8c8c"/><rect x="13" y="11" width="9" height="9" fill="#f25022"/><rect x="13" y="21" width="9" height="9" fill="#00a4ef"/><rect x="23" y="11" width="9" height="9" fill="#7fba00"/><rect x="23" y="21" width="9" height="9" fill="#ffb900"/><path d="M53.4,25c-0.8,0.4-1.7,0.6-2.9,0.6c-1.5,0-2.7-0.5-3.5-1.4c-0.9-0.9-1.3-2.2-1.3-3.7c0-1.6,0.5-2.9,1.5-3.9c1-1,2.3-1.5,3.8-1.5c1,0,1.8,0.1,2.4,0.4v1.7c-0.7-0.4-1.4-0.6-2.3-0.6c-1.1,0-2,0.4-2.7,1.1c-0.7,0.7-1,1.6-1,2.8c0,1.1,0.3,2,1,2.7c0.6,0.7,1.5,1,2.5,1c1,0,1.8-0.2,2.5-0.7V25z" fill="#5e5e5e"/><path d="M58.3,25.6c-1.1,0-2-0.3-2.7-1c-0.7-0.7-1-1.6-1-2.7c0-1.2,0.3-2.2,1-2.9c0.7-0.7,1.6-1,2.8-1c1.1,0,2,0.3,2.7,1c0.6,0.7,1,1.6,1,2.8c0,1.2-0.3,2.1-1,2.8C60.4,25.3,59.5,25.6,58.3,25.6z M58.4,19.3c-0.6,0-1.2,0.2-1.5,0.7c-0.4,0.4-0.6,1.1-0.6,1.9c0,0.8,0.2,1.4,0.6,1.8c0.4,0.4,0.9,0.7,1.5,0.7c0.6,0,1.1-0.2,1.5-0.6c0.3-0.4,0.5-1,0.5-1.8c0-0.8-0.2-1.4-0.5-1.9C59.5,19.5,59,19.3,58.4,19.3z" fill="#5e5e5e"/><path d="M70.3,25.4h-1.6v-4.1c0-1.4-0.5-2-1.4-2c-0.5,0-0.9,0.2-1.2,0.6c-0.3,0.4-0.5,0.9-0.5,1.4v4.1h-1.7v-7.3h1.7v1.2h0c0.5-0.9,1.3-1.4,2.4-1.4c0.8,0,1.4,0.3,1.8,0.8c0.4,0.5,0.6,1.3,0.6,2.2V25.4z" fill="#5e5e5e"/><path d="M78.7,25.4h-1.6v-4.1c0-1.4-0.5-2-1.4-2c-0.5,0-0.9,0.2-1.2,0.6c-0.3,0.4-0.5,0.9-0.5,1.4v4.1h-1.7v-7.3h1.7v1.2h0c0.5-0.9,1.3-1.4,2.4-1.4c0.8,0,1.4,0.3,1.8,0.8c0.4,0.5,0.6,1.3,0.6,2.2V25.4z" fill="#5e5e5e"/><path d="M86.9,22.2h-5c0,0.7,0.2,1.2,0.6,1.6c0.4,0.4,0.9,0.5,1.6,0.5c0.8,0,1.5-0.2,2.1-0.7V25c-0.7,0.4-1.5,0.6-2.6,0.6c-1.1,0-1.9-0.3-2.5-1s-0.9-1.6-0.9-2.8c0-1.1,0.3-2.1,1-2.8c0.7-0.7,1.5-1.1,2.5-1.1c1,0,1.8,0.3,2.3,1c0.5,0.6,0.8,1.5,0.8,2.7V22.2z M85.3,21.1c0-0.6-0.1-1.1-0.4-1.4c-0.3-0.3-0.7-0.5-1.1-0.5c-0.5,0-0.9,0.2-1.2,0.5c-0.3,0.3-0.5,0.8-0.6,1.4H85.3z" fill="#5e5e5e"/><path d="M94.5,18.2l-2.4,3.7l2.4,3.6h-1.9l-1.3-2.3c-0.1-0.1-0.2-0.3-0.3-0.5h0c0,0-0.1,0.2-0.3,0.5l-1.3,2.3h-1.9l2.5-3.6l-2.3-3.7h1.9l1.3,2.4c0.1,0.2,0.2,0.4,0.3,0.5h0l1.6-2.9H94.5z" fill="#5e5e5e"/><path d="M96.6,16.6c-0.3,0-0.5-0.1-0.7-0.3c-0.2-0.2-0.3-0.4-0.3-0.7c0-0.3,0.1-0.5,0.3-0.7c0.2-0.2,0.4-0.3,0.7-0.3c0.3,0,0.5,0.1,0.7,0.3c0.2,0.2,0.3,0.4,0.3,0.7c0,0.3-0.1,0.5-0.3,0.7C97.1,16.5,96.9,16.6,96.6,16.6z M97.4,25.4h-1.6v-7.3h1.6V25.4z" fill="#5e5e5e"/><path d="M102.8,25.6c-1.1,0-2-0.3-2.7-1c-0.7-0.7-1-1.6-1-2.7c0-1.2,0.3-2.2,1-2.9c0.7-0.7,1.6-1,2.8-1c1.1,0,2,0.3,2.7,1c0.6,0.7,1,1.6,1,2.8c0,1.2-0.3,2.1-1,2.8C104.8,25.3,103.9,25.6,102.8,25.6z M102.8,19.3c-0.6,0-1.2,0.2-1.5,0.7c-0.4,0.4-0.6,1.1-0.6,1.9c0,0.8,0.2,1.4,0.6,1.8c0.4,0.4,0.9,0.7,1.5,0.7c0.6,0,1.1-0.2,1.5-0.6c0.3-0.4,0.5-1,0.5-1.8c0-0.8-0.2-1.4-0.5-1.9C104,19.5,103.5,19.3,102.8,19.3z" fill="#5e5e5e"/><path d="M114.7,25.4h-1.6v-4.1c0-1.4-0.5-2-1.4-2c-0.5,0-0.9,0.2-1.2,0.6c-0.3,0.4-0.5,0.9-0.5,1.4v4.1h-1.7v-7.3h1.7v1.2h0c0.5-0.9,1.3-1.4,2.4-1.4c0.8,0,1.4,0.3,1.8,0.8c0.4,0.5,0.6,1.3,0.6,2.2V25.4z" fill="#5e5e5e"/></svg>